<svg xmlns="http://www.w3.org/2000/svg" viewBox="0 0 248 248"><rect width="22" height="22" x="-11" y="-11" fill="#f25022" rx=".57" transform="rotate(.1 -39521.453 14501.68)"/><rect width="22" height="22" x="-11" y="-11" fill="#7fba00" rx=".7" transform="rotate(-.1 39558.953 -28470.143)"/><path fill="#737373" d="m217.51 75.51 5.7.05q.6 0 .57-.59l-.17-3.57q-.02-.53.48-.69l3.72-1.17q.69-.22.69.5v4.78a.74.73 89.2 0 0 .75.74l3.35-.08q.7-.02.71.69l.03 2.79q0 .54-.54.54h-3.79q-.51 0-.51.51c0 3.1-1.89 13.87 4.32 11.75q.6-.21.56.43l-.19 2.65q-.03.5-.5.65c-11.04 3.72-8.93-9.84-9.1-15.4q-.02-.59-.62-.59h-5.72q-.5 0-.5.5v15q0 .5-.5.5h-3.75q-.5 0-.5-.5V80.13q0-.63-.62-.63H209q-.5 0-.5-.5v-2.82q0-.83.82-.73l1.89.23q.6.07.7-.52c.24-1.42-.02-3.06.33-4.29q1.89-6.6 9.41-5.12.61.12.61.75l-.03 2.91q0 .91-.8.47c-4.11-2.27-5.27 2.12-4.57 5.11q.12.51.65.52Z"/><ellipse fill="#737373" rx="2.73" ry="2.56" transform="rotate(-3.8 1104.474 -1659.202)"/><path fill="#737373" d="m100.22 74.97-7.87 19.42q-.25.61-.91.61h-2.19q-.64 0-.88-.59l-8.18-19.83q-.48-1.17-.47.09l.05 19.7q0 .63-.64.63h-3.25q-.63 0-.63-.63v-26.5q0-.62.63-.62h5.8q.54 0 .74.5l7.71 19.45a.33.33 0 0 0 .61 0l7.99-19.44q.21-.51.76-.51H105q.5 0 .5.5V94.5q0 .5-.5.5h-3.75q-.5 0-.5-.5V75.08a.28.27 56.4 0 0-.53-.11ZM133.09 80.31c-4.09-2.85-9.41-.69-9.85 4.43-.56 6.45 4.38 9.02 9.82 6.09q.69-.37.69.42v2.81q0 .62-.57.86c-18.67 7.8-20.74-24.63.03-19.06q.65.18.62.85l-.11 3.29q-.03.73-.63.31ZM142.28 78.11q1.5-3.63 5.71-2.74.51.11.51.63v3.23q0 .69-.67.53c-8.38-2.05-6.07 10.64-6.08 15.04q-.01.66-.67.68l-3.71.07q-.62.01-.62-.61V76.13q0-.63.63-.63h3.88q.84 0 .52.79-.35.87-.15 1.76.24 1.06.65.06Z"/><path fill="#737373" d="M155.83 95.557a10.55 10.23 108.8 0 1-6.284-13.284 10.55 10.23 108.8 0 1 13.084-6.69 10.55 10.23 108.8 0 1 6.284 13.284 10.55 10.23 108.8 0 1-13.084 6.69Zm3.453-3.307a6.65 5.4 89.8 0 0 5.377-6.669 6.65 5.4 89.8 0 0-5.423-6.631 6.65 5.4 89.8 0 0-5.377 6.669 6.65 5.4 89.8 0 0 5.423 6.631Z"/><path fill="#737373" d="M180.06 91.31a1.52 1.52 0 0 0-.3-2.54c-3.58-1.74-10.02-4.43-7.18-9.83 2.03-3.86 7.03-4.4 10.9-3.1q.46.16.48.65l.13 3.11q.04.86-.72.43-2.31-1.31-4.78-.96c-2.35.35-2.39 2.71-.57 3.74 3.21 1.84 7.39 2.9 6.92 7.62-.71 7.16-13.87 6.72-12.92 2.83q.12-.49.01-.98-.13-.58-.01-1.19.12-.61.66-.3c2.22 1.24 5.14 2.38 7.38.52ZM207.728 86.644a9.1 9.1 0 0 1-8.956 9.241l-1.7.027a9.1 9.1 0 0 1-9.242-8.956l-.038-2.4a9.1 9.1 0 0 1 8.956-9.241l1.7-.027a9.1 9.1 0 0 1 9.242 8.956l.038 2.4Zm-9.87 5.596a6.64 5.4 89.5 0 0 5.342-6.687 6.64 5.4 89.5 0 0-5.458-6.593 6.64 5.4 89.5 0 0-5.342 6.687 6.64 5.4 89.5 0 0 5.458 6.593Z"/><rect width="4.74" height="20.06" x="110" y="75.5" fill="#737373" rx=".46"/><rect width="22" height="21.96" x="-11" y="-10.98" fill="#00a4ef" rx=".5" transform="rotate(-.1 53566.977 -14420.446)"/><rect width="21.98" height="21.78" x="-10.99" y="-10.89" fill="#ffb900" rx=".37" transform="rotate(.1 -53477.91 28551.333)"/><path d="M76.5 176.75c-1.05-4.6-14.42-8.54-17.87-13.29-4.37-6.02-1.25-13.28 5.39-15.76q7.66-2.86 15.74-.12.49.16.49.67v4.24q0 .71-.63.39-5.63-2.88-11.8-1.74c-7.13 1.32-8.04 8.52-1.91 12.03 6.36 3.64 17.25 7.43 16.01 16.96-1.5 11.42-16.89 11.02-24.88 7.66q-.54-.23-.54-.81v-4.47q0-.85.72-.39c5.7 3.7 22 6.56 19.28-5.37ZM24.2 177.88l-3.85 10.99a.57.57 0 0 1-.53.38h-4.31a.57.57 0 0 1-.53-.77l15.78-41.11a.57.57 0 0 1 .53-.36l4.34-.02a.57.57 0 0 1 .53.37l15.83 41.12a.57.57 0 0 1-.53.77h-4.27a.57.57 0 0 1-.54-.37l-4.12-11.01a.57.57 0 0 0-.54-.37H24.73a.57.57 0 0 0-.53.38Zm16.32-5.61c-2.43-6.29-5.36-12.89-6.62-19.47q-.2-1.03-.56-.04l-7.03 19.55a.51.51 0 0 0 .48.69h13.23a.54.54 0 0 0 .5-.73ZM95.5 174.02v14.61q0 .62-.63.62h-3.62q-.75 0-.75-.75v-41.02a.44.43-.7 0 1 .43-.43c6.67-.16 17.08-1.41 22.06 3.75 5.37 5.54 4.18 15-2.03 19.52-4.08 2.96-9.53 3.28-14.54 2.85q-.92-.08-.92.85Zm-.03-22.13.06 16.36a.46.46 0 0 0 .46.46l6.41-.03a8.85 8.2-.2 0 0 8.82-8.23v-.88a8.85 8.2-.2 0 0-8.88-8.17l-6.41.03a.46.46 0 0 0-.46.46ZM137.47 153.76l.05 34.86q0 .63-.64.63h-3.63q-.75 0-.75-.75v-40.98a.48.48 0 0 1 .48-.48l5.45-.06q.62 0 .96.53l21.91 34.41a.27.26 28.9 0 0 .49-.14l-.06-34.14q0-.64.64-.64H166q.75 0 .75.75v40.87q0 .63-.63.63h-4.95q-.55 0-.85-.46L137.7 153.7q-.23-.36-.23.06ZM198 166v3.48a.52.52 0 0 1-.52.52h-14.21a.52.52 0 0 0-.52.52v13.71a.52.52 0 0 0 .52.52h16.46a.52.52 0 0 1 .52.52v3.46a.52.52 0 0 1-.52.52h-21.46a.52.52 0 0 1-.52-.52v-41.21a.52.52 0 0 1 .52-.52h20.46a.52.52 0 0 1 .52.52v3.46a.52.52 0 0 1-.52.52h-15.46a.52.52 0 0 0-.52.52v12.99a.52.52 0 0 0 .52.52l14.21-.05a.52.52 0 0 1 .52.52ZM220.99 152.05l.03 36.63a.57.57 0 0 1-.57.57h-3.63a.57.57 0 0 1-.57-.57v-36.61a.57.57 0 0 0-.57-.57h-11.11a.57.57 0 0 1-.57-.57v-3.36a.57.57 0 0 1 .57-.57h28.11a.57.57 0 0 1 .57.57v3.37a.57.57 0 0 1-.57.57l-11.12-.03a.57.57 0 0 0-.57.57Z"/><circle cx="120.57" cy="186.56" r="3.24"/></svg>